<svg xmlns="http://www.w3.org/2000/svg" xmlns:xlink="http://www.w3.org/1999/xlink" width="400" zoomAndPan="magnify" viewBox="0 0 300 112.499997" height="150" preserveAspectRatio="xMidYMid meet" version="1.2"><defs><clipPath id="5393c52c04"><path d="M 49.265625 35.316406 L 94.730469 35.316406 L 94.730469 82 L 49.265625 82 Z M 49.265625 35.316406 "/></clipPath><clipPath id="bb0cbccf6d"><path d="M 69.953125 81.929688 C 58.355469 80.863281 49.265625 70.859375 49.265625 58.671875 C 49.265625 46.476562 58.363281 36.46875 69.964844 35.414062 C 66.835938 39.488281 61.539062 48.222656 62.003906 60.183594 C 62.40625 70.539062 66.917969 78.023438 69.953125 81.929688 Z M 72.179688 35.320312 C 72.121094 35.320312 72.058594 35.316406 72 35.316406 C 71.9375 35.316406 71.878906 35.320312 71.820312 35.320312 C 69.027344 38.675781 62.890625 47.546875 63.378906 60.125 C 63.804688 71.039062 68.972656 78.640625 71.8125 82.019531 C 71.875 82.023438 71.9375 82.023438 72 82.023438 C 72.0625 82.023438 72.121094 82.023438 72.183594 82.019531 C 75.027344 78.640625 80.195312 71.039062 80.621094 60.125 C 81.109375 47.546875 74.972656 38.675781 72.179688 35.320312 Z M 74.03125 35.414062 C 77.164062 39.488281 82.460938 48.222656 81.996094 60.183594 C 81.59375 70.535156 77.082031 78.023438 74.046875 81.929688 C 85.640625 80.863281 94.730469 70.859375 94.730469 58.671875 C 94.730469 46.476562 85.632812 36.46875 74.03125 35.414062 Z M 74.03125 35.414062 "/></clipPath></defs><g id="0e55d5ab7f"><g style="fill:#2d6a4f;fill-opacity:1;"><g transform="translate(7.845433, 82.027157)"><path style="stroke:none" d="M 30.484375 -35.0625 C 27.429688 -35.0625 24.804688 -33.929688 22.609375 -31.671875 C 20.410156 -29.410156 19.3125 -26.695312 19.3125 -23.53125 C 19.3125 -20.289062 20.410156 -17.539062 22.609375 -15.28125 C 24.804688 -13.03125 27.429688 -11.90625 30.484375 -11.90625 C 31.941406 -11.90625 33.328125 -12.085938 34.640625 -12.453125 C 35.953125 -12.816406 36.914062 -13.179688 37.53125 -13.546875 L 38.359375 -14.09375 L 43.84375 -2.84375 C 43.414062 -2.53125 42.820312 -2.144531 42.0625 -1.6875 C 41.300781 -1.226562 39.5625 -0.601562 36.84375 0.1875 C 34.125 0.976562 31.207031 1.375 28.09375 1.375 C 21.195312 1.375 15.140625 -1.050781 9.921875 -5.90625 C 4.710938 -10.757812 2.109375 -16.570312 2.109375 -23.34375 C 2.109375 -30.175781 4.710938 -36.046875 9.921875 -40.953125 C 15.140625 -45.867188 21.195312 -48.328125 28.09375 -48.328125 C 31.207031 -48.328125 34.078125 -47.957031 36.703125 -47.21875 C 39.328125 -46.488281 41.1875 -45.757812 42.28125 -45.03125 L 43.84375 -43.9375 L 38.359375 -32.859375 C 36.335938 -34.328125 33.710938 -35.0625 30.484375 -35.0625 Z M 30.484375 -35.0625 "/></g></g><g clip-rule="nonzero" clip-path="url(#5393c52c04)"><g clip-rule="nonzero" clip-path="url(#bb0cbccf6d)"><path style=" stroke:none;fill-rule:nonzero;fill:#2d6a4f;fill-opacity:1;" d="M 49.265625 35.316406 L 94.730469 35.316406 L 94.730469 81.996094 L 49.265625 81.996094 Z M 49.265625 35.316406 "/></g></g><g style="fill:#2d6a4f;fill-opacity:1;"><g transform="translate(93.411697, 80.016525)"><path style="stroke:none" d="M 19.28125 -43.578125 L 19.28125 -22.859375 C 19.28125 -18.546875 19.929688 -15.484375 21.234375 -13.671875 C 22.535156 -11.859375 24.742188 -10.953125 27.859375 -10.953125 C 30.972656 -10.953125 33.179688 -11.859375 34.484375 -13.671875 C 35.785156 -15.484375 36.4375 -18.546875 36.4375 -22.859375 L 36.4375 -43.578125 L 51.484375 -43.578125 L 51.484375 -19.203125 C 51.484375 -11.953125 49.597656 -6.722656 45.828125 -3.515625 C 42.066406 -0.316406 36.078125 1.28125 27.859375 1.28125 C 19.648438 1.28125 13.660156 -0.316406 9.890625 -3.515625 C 6.128906 -6.722656 4.25 -11.953125 4.25 -19.203125 L 4.25 -43.578125 Z M 19.28125 -43.578125 "/></g></g><g style="fill:#2d6a4f;fill-opacity:1;"><g transform="translate(144.895201, 80.016525)"><path style="stroke:none" d="M 5.09375 0 L 5.09375 -43.578125 L 20.140625 -43.578125 L 20.140625 -37.296875 L 20.296875 -37.296875 C 20.410156 -37.523438 20.59375 -37.804688 20.84375 -38.140625 C 21.101562 -38.484375 21.65625 -39.078125 22.5 -39.921875 C 23.351562 -40.773438 24.257812 -41.539062 25.21875 -42.21875 C 26.1875 -42.894531 27.4375 -43.503906 28.96875 -44.046875 C 30.5 -44.585938 32.054688 -44.859375 33.640625 -44.859375 C 35.285156 -44.859375 36.898438 -44.628906 38.484375 -44.171875 C 40.066406 -43.722656 41.226562 -43.269531 41.96875 -42.8125 L 43.15625 -42.140625 L 36.875 -29.390625 C 35 -30.972656 32.390625 -31.765625 29.046875 -31.765625 C 27.234375 -31.765625 25.675781 -31.367188 24.375 -30.578125 C 23.070312 -29.785156 22.148438 -28.820312 21.609375 -27.6875 C 21.078125 -26.5625 20.695312 -25.597656 20.46875 -24.796875 C 20.25 -24.003906 20.140625 -23.382812 20.140625 -22.9375 L 20.140625 0 Z M 5.09375 0 "/></g></g><g style="fill:#2d6a4f;fill-opacity:1;"><g transform="translate(186.943002, 81.372619)"><path style="stroke:none" d="M 7.640625 -43.578125 L 7.640625 -59.8125 L 22.6875 -59.8125 L 22.6875 -43.578125 L 31.859375 -43.578125 L 31.859375 -32.109375 L 22.6875 -32.109375 L 22.6875 -18.265625 C 22.6875 -14.242188 23.816406 -12.234375 26.078125 -12.234375 C 26.648438 -12.234375 27.242188 -12.34375 27.859375 -12.5625 C 28.484375 -12.789062 28.96875 -13.019531 29.3125 -13.25 L 29.8125 -13.59375 L 33.5625 -1.4375 C 30.332031 0.375 26.648438 1.28125 22.515625 1.28125 C 19.679688 1.28125 17.242188 0.785156 15.203125 -0.203125 C 13.160156 -1.203125 11.613281 -2.535156 10.5625 -4.203125 C 9.519531 -5.878906 8.769531 -7.632812 8.3125 -9.46875 C 7.863281 -11.3125 7.640625 -13.28125 7.640625 -15.375 L 7.640625 -32.109375 L 1.359375 -32.109375 L 1.359375 -43.578125 Z M 7.640625 -43.578125 "/></g></g><g style="fill:#2d6a4f;fill-opacity:1;"><g transform="translate(216.252736, 81.372619)"><path style="stroke:none" d="M 5.09375 0 L 5.09375 -73.0625 L 20.140625 -73.0625 L 20.140625 0 Z M 5.09375 0 "/></g></g><g style="fill:#2d6a4f;fill-opacity:1;"><g transform="translate(237.23669, 81.372619)"><path style="stroke:none" d="M 38.140625 -43.578125 L 55.46875 -43.578125 L 21.234375 22.09375 L 3.90625 22.09375 L 18.9375 -6.796875 L -1.703125 -43.578125 L 15.625 -43.578125 L 27.78125 -21.234375 Z M 38.140625 -43.578125 "/></g></g></g></svg>