<svg xmlns="http://www.w3.org/2000/svg" xmlns:xlink="http://www.w3.org/1999/xlink" width="1000" zoomAndPan="magnify" viewBox="0 0 750 749.999995" height="1000" preserveAspectRatio="xMidYMid meet" version="1.2"><defs><clipPath id="ebc2ea41f3"><path d="M 346.105469 184.75 L 736.445312 184.75 L 736.445312 586 L 346.105469 586 Z M 346.105469 184.75 "/></clipPath><clipPath id="061d9273f0"><path d="M 523.6875 584.921875 C 424.144531 575.789062 346.105469 489.886719 346.105469 385.246094 C 346.105469 280.558594 424.210938 194.628906 523.820312 185.554688 C 496.949219 220.550781 451.460938 295.546875 455.453125 398.222656 C 458.90625 487.125 497.644531 551.402344 523.6875 584.921875 Z M 542.824219 184.769531 C 542.308594 184.765625 541.792969 184.75 541.277344 184.75 C 540.757812 184.75 540.242188 184.765625 539.726562 184.769531 C 515.753906 213.585938 463.0625 289.738281 467.261719 397.742188 C 470.902344 491.445312 515.277344 556.683594 539.6875 585.722656 C 540.214844 585.726562 540.742188 585.742188 541.277344 585.742188 C 541.808594 585.742188 542.335938 585.726562 542.863281 585.722656 C 567.277344 556.679688 611.652344 491.441406 615.289062 397.742188 C 619.484375 289.746094 566.796875 213.589844 542.824219 184.769531 Z M 558.730469 185.554688 C 585.601562 220.550781 631.089844 295.554688 627.101562 398.222656 C 623.648438 487.117188 584.90625 551.402344 558.863281 584.921875 C 658.410156 575.789062 736.445312 489.886719 736.445312 385.246094 C 736.445312 280.558594 658.339844 194.628906 558.730469 185.554688 Z M 558.730469 185.554688 "/></clipPath></defs><g id="7af7078545"><g style="fill:#2d6a4f;fill-opacity:1;"><g transform="translate(0.00000265, 575.030436)"><path style="stroke:none" d="M 254.65625 -292.90625 C 229.164062 -292.90625 207.242188 -283.472656 188.890625 -264.609375 C 170.535156 -245.742188 161.359375 -223.054688 161.359375 -196.546875 C 161.359375 -169.523438 170.535156 -146.582031 188.890625 -127.71875 C 207.242188 -108.851562 229.164062 -99.421875 254.65625 -99.421875 C 266.894531 -99.421875 278.492188 -100.945312 289.453125 -104 C 300.421875 -107.0625 308.453125 -110.125 313.546875 -113.1875 L 320.4375 -117.765625 L 366.3125 -23.703125 C 362.75 -21.160156 357.78125 -17.972656 351.40625 -14.140625 C 345.03125 -10.316406 330.5 -5.09375 307.8125 1.53125 C 285.125 8.15625 260.78125 11.46875 234.78125 11.46875 C 177.164062 11.46875 126.5625 -8.796875 82.96875 -49.328125 C 39.382812 -89.859375 17.59375 -138.421875 17.59375 -195.015625 C 17.59375 -252.109375 39.382812 -301.175781 82.96875 -342.21875 C 126.5625 -383.257812 177.164062 -403.78125 234.78125 -403.78125 C 260.78125 -403.78125 284.738281 -400.722656 306.65625 -394.609375 C 328.582031 -388.492188 344.132812 -382.375 353.3125 -376.25 L 366.3125 -367.078125 L 320.4375 -274.546875 C 303.601562 -286.785156 281.675781 -292.90625 254.65625 -292.90625 Z M 254.65625 -292.90625 "/></g></g><g clip-rule="nonzero" clip-path="url(#ebc2ea41f3)"><g clip-rule="nonzero" clip-path="url(#061d9273f0)"><path style=" stroke:none;fill-rule:nonzero;fill:#2d6a4f;fill-opacity:1;" d="M 346.105469 184.75 L 736.445312 184.75 L 736.445312 585.507812 L 346.105469 585.507812 Z M 346.105469 184.75 "/></g></g></g></svg>